<svg xmlns="http://www.w3.org/2000/svg" version="1.1" xmlns:xlink="http://www.w3.org/1999/xlink" xmlns:svgjs="http://svgjs.com/svgjs" width="1440" height="560" preserveAspectRatio="none" viewBox="0 0 1440 560"><g mask="url(&quot;#SvgjsMask1000&quot;)" fill="none"><rect width="1440" height="560" x="0" y="0" fill="#0e2a47"></rect><path d="M352.84 202.44 a49.99 49.99 0 1 0 99.98 0 a49.99 49.99 0 1 0 -99.98 0z" stroke="#d3b714"></path><path d="M348.71 434.18 a9.45 9.45 0 1 0 18.9 0 a9.45 9.45 0 1 0 -18.9 0z" stroke="#037b0b"></path><path d="M547.68 189.44L577.46 189.44L577.46 220.47L547.68 220.47z" fill="#e73635"></path><path d="M1143.88 488.34L1144.64 488.34L1144.64 530.08L1143.88 530.08z" fill="#037b0b"></path><path d="M908.71 356.17L937.8 356.17L937.8 405.34L908.71 405.34z" fill="#e73635"></path><path d="M396.28 322.04L438.78 322.04L438.78 342.35L396.28 342.35z" fill="#d3b714"></path><path d="M852.92 179.42L904.67 179.42L904.67 231.17L852.92 231.17z" fill="#037b0b"></path><path d="M1338.7 188.11L1345.24 188.11L1345.24 200.29L1338.7 200.29z" stroke="#037b0b"></path><path d="M107.92 466.18 a37.44 37.44 0 1 0 74.88 0 a37.44 37.44 0 1 0 -74.88 0z" stroke="#d3b714"></path><path d="M1355.81 57.42 a36.62 36.62 0 1 0 73.24 0 a36.62 36.62 0 1 0 -73.24 0z" stroke="#e73635"></path><path d="M853.38 179.23L883.49 179.23L883.49 209.34L853.38 209.34z" fill="#d3b714"></path><path d="M442.74 335.57L479.86 335.57L479.86 390.93L442.74 390.93z" stroke="#037b0b"></path><path d="M410.52 333.38L444.31 333.38L444.31 367.17L410.52 367.17z" stroke="#d3b714"></path><path d="M55 324.99L77.57 324.99L77.57 347.56L55 347.56z" stroke="#e73635"></path><path d="M1053.19 308.03L1096.22 308.03L1096.22 351.06L1053.19 351.06z" fill="#e73635"></path><path d="M1304.14 485.84 a23.77 23.77 0 1 0 47.54 0 a23.77 23.77 0 1 0 -47.54 0z" fill="#e73635"></path><path d="M79.7 301.64L83.94 301.64L83.94 305.88L79.7 305.88z" fill="#e73635"></path><path d="M545.69 128.01L598.43 128.01L598.43 136.38L545.69 136.38z" stroke="#e73635"></path><path d="M340.9 306.98L344.8 306.98L344.8 332.08L340.9 332.08z" stroke="#e73635"></path><path d="M818.16 559.16 a46.64 46.64 0 1 0 93.28 0 a46.64 46.64 0 1 0 -93.28 0z" stroke="#d3b714"></path><path d="M154.56 172.45 a43.37 43.37 0 1 0 86.74 0 a43.37 43.37 0 1 0 -86.74 0z" fill="#e73635"></path><path d="M730.04 216.91L735.57 216.91L735.57 222.44L730.04 222.44z" stroke="#e73635"></path><path d="M1239.49 370.01 a21.34 21.34 0 1 0 42.68 0 a21.34 21.34 0 1 0 -42.68 0z" stroke="#037b0b"></path><path d="M1016.72 587.62a39.21 39.21 0 1 0-11.95-77.5z" fill="#037b0b"></path><path d="M84.71 519.54 a44.13 44.13 0 1 0 88.26 0 a44.13 44.13 0 1 0 -88.26 0z" fill="#e73635"></path><path d="M336.08 130.69L383.23 130.69L383.23 177.84L336.08 177.84z" stroke="#d3b714"></path><path d="M483.78 193.6a37.27 37.27 0 1 0 54.7 50.64z" stroke="#d3b714"></path><path d="M90 392.07 a46.9 46.9 0 1 0 93.8 0 a46.9 46.9 0 1 0 -93.8 0z" stroke="#e73635"></path><path d="M1271.19 32.77 a20.99 20.99 0 1 0 41.98 0 a20.99 20.99 0 1 0 -41.98 0z" fill="#e73635"></path><path d="M326.95 138.37L353.95 138.37L353.95 165.37L326.95 165.37z" stroke="#e73635"></path><path d="M1342.43 565.33a22.49 22.49 0 1 0-27.5-35.59z" fill="#e73635"></path><path d="M65.98 453.49 a35.37 35.37 0 1 0 70.74 0 a35.37 35.37 0 1 0 -70.74 0z" fill="#037b0b"></path><path d="M344.25 494.2L353.78 494.2L353.78 541.12L344.25 541.12z" stroke="#d3b714"></path></g><defs><mask id="SvgjsMask1000"><rect width="1440" height="560" fill="#ffffff"></rect></mask></defs></svg>